<?xml version="1.0" encoding="UTF-8" standalone="no"?>
<!-- Created with Inkscape (http://www.inkscape.org/) -->

<svg
   xmlns:dc="http://purl.org/dc/elements/1.1/"
   xmlns:cc="http://creativecommons.org/ns#"
   xmlns:rdf="http://www.w3.org/1999/02/22-rdf-syntax-ns#"
   xmlns:svg="http://www.w3.org/2000/svg"
   xmlns="http://www.w3.org/2000/svg"
   xmlns:sodipodi="http://sodipodi.sourceforge.net/DTD/sodipodi-0.dtd"
   xmlns:inkscape="http://www.inkscape.org/namespaces/inkscape"
   id="svg2"
   version="1.1"
   inkscape:version="0.48.4 r9939"
   width="160"
   height="160"
   xml:space="preserve"
   sodipodi:docname="assets.pdf"><metadata
     id="metadata8"><rdf:RDF><cc:Work
         rdf:about=""><dc:format>image/svg+xml</dc:format><dc:type
           rdf:resource="http://purl.org/dc/dcmitype/StillImage" /><dc:title></dc:title></cc:Work></rdf:RDF></metadata><defs
     id="defs6"><clipPath
       clipPathUnits="userSpaceOnUse"
       id="clipPath16"><path
         d="M 0,128 128,128 128,0 0,0 0,128 z"
         id="path18" /></clipPath><clipPath
       clipPathUnits="userSpaceOnUse"
       id="clipPath24"><path
         d="m 51.8252,100 51.1998,0 0,-66.375 -51.1998,0 0,66.375 z"
         id="path26" /></clipPath><linearGradient
       x1="0"
       y1="0"
       x2="1"
       y2="0"
       gradientUnits="userSpaceOnUse"
       gradientTransform="matrix(0,66.375,66.375,0,77.425301,33.625)"
       spreadMethod="pad"
       id="linearGradient32"><stop
         style="stop-opacity:1;stop-color:#666666"
         offset="0"
         id="stop34" /><stop
         style="stop-opacity:1;stop-color:#d5dfe6"
         offset="1"
         id="stop36" /></linearGradient><linearGradient
       x1="0"
       y1="0"
       x2="1"
       y2="0"
       gradientUnits="userSpaceOnUse"
       gradientTransform="matrix(0,80.408203,80.408203,0,64.000504,23.3379)"
       spreadMethod="pad"
       id="linearGradient64"><stop
         style="stop-opacity:1;stop-color:#666666"
         offset="0"
         id="stop66" /><stop
         style="stop-opacity:1;stop-color:#d5dfe6"
         offset="1"
         id="stop68" /></linearGradient></defs><sodipodi:namedview
     pagecolor="#ffffff"
     bordercolor="#666666"
     borderopacity="1"
     objecttolerance="10"
     gridtolerance="10"
     guidetolerance="10"
     inkscape:pageopacity="0"
     inkscape:pageshadow="2"
     inkscape:window-width="640"
     inkscape:window-height="480"
     id="namedview4"
     showgrid="false"
     inkscape:zoom="1.475"
     inkscape:cx="80"
     inkscape:cy="80"
     inkscape:window-x="0"
     inkscape:window-y="0"
     inkscape:window-maximized="0"
     inkscape:current-layer="g10" /><g
     id="g10"
     inkscape:groupmode="layer"
     inkscape:label="assets"
     transform="matrix(1.25,0,0,-1.25,0,160)"><g
       id="g12"><g
         id="g14"
         clip-path="url(#clipPath16)"><g
           id="g20"><g
             id="g22" /><g
             id="g38"><g
               clip-path="url(#clipPath24)"
               opacity="0.5"
               id="g40"><g
                 id="g42"><g
                   id="g44"><g
                     id="g46"><g
                       id="g48"><path
                         d="m 103.025,100 -9.119,-9.121 0,-57.254 9.119,9.121 0,57.254 z M 58.826,51.822 c -3.865,0 -7.001,3.137 -7.001,7.004 0,3.865 3.136,6.996 7.001,6.996 3.867,0 7,-3.131 7,-6.996 0,-3.867 -3.133,-7.004 -7,-7.004"
                         style="fill:url(#linearGradient32);stroke:none"
                         id="path50" /></g></g></g></g></g></g></g></g></g><g
       id="g52"><g
         id="g54"><g
           id="g60"><g
             id="g62"><path
               d="m 42.745,103.746 -9.121,-9.121 57.253,0 9.123,9.121 -57.255,0 z m -14.744,-14.093 0,-61.653 4.362,0 0,-4.662 11.051,0 0,4.662 27.836,0 0,-4.662 11.051,0 0,4.662 7.353,0 0,61.653 -61.653,0 z m 5,-5.001 51.653,0 0,-51.652 -51.653,0 0,51.652 z m 24.075,-8.509 0,-7.635 c -1.414,-0.254 -2.722,-0.806 -3.858,-1.597 l 0,0 -5.397,5.394 -2.475,-2.471 5.396,-5.397 C 49.952,63.302 49.4,61.994 49.145,60.576 l 0,0 -7.634,0 0,-3.5 7.634,0 c 0.253,-1.415 0.805,-2.724 1.597,-3.861 l 0,0 -5.396,-5.394 2.475,-2.477 5.395,5.396 c 1.138,-0.789 2.446,-1.34 3.86,-1.597 l 0,0 0,-7.631 3.5,0 0,7.631 c 1.416,0.257 2.726,0.808 3.863,1.597 l 0,0 5.396,-5.396 2.474,2.477 -5.395,5.394 c 0.789,1.137 1.342,2.446 1.595,3.861 l 0,0 7.636,0 0,3.5 -7.636,0 c -0.255,1.418 -0.807,2.723 -1.597,3.861 l 0,0 5.397,5.397 -2.474,2.471 -5.398,-5.394 c -1.135,0.791 -2.445,1.343 -3.861,1.597 l 0,0 0,7.635 -3.5,0 z m -5.25,-17.317 c 0,3.865 3.135,6.996 7,6.996 l 0,0 c 3.867,0 7,-3.131 7,-6.996 l 0,0 c 0,-3.867 -3.133,-7.004 -7,-7.004 l 0,0 c -3.865,0 -7,3.137 -7,7.004"
               style="fill:url(#linearGradient64);stroke:none"
               id="path70" /></g></g></g></g></g></svg>