<?xml version="1.0" encoding="UTF-8" standalone="no"?>
<!-- Created with Inkscape (http://www.inkscape.org/) -->

<svg
   xmlns:dc="http://purl.org/dc/elements/1.1/"
   xmlns:cc="http://creativecommons.org/ns#"
   xmlns:rdf="http://www.w3.org/1999/02/22-rdf-syntax-ns#"
   xmlns:svg="http://www.w3.org/2000/svg"
   xmlns="http://www.w3.org/2000/svg"
   xmlns:sodipodi="http://sodipodi.sourceforge.net/DTD/sodipodi-0.dtd"
   xmlns:inkscape="http://www.inkscape.org/namespaces/inkscape"
   id="svg2"
   version="1.1"
   inkscape:version="0.48.4 r9939"
   width="160"
   height="160"
   xml:space="preserve"
   sodipodi:docname="charactersheet.pdf"><metadata
     id="metadata8"><rdf:RDF><cc:Work
         rdf:about=""><dc:format>image/svg+xml</dc:format><dc:type
           rdf:resource="http://purl.org/dc/dcmitype/StillImage" /><dc:title></dc:title></cc:Work></rdf:RDF></metadata><defs
     id="defs6"><clipPath
       clipPathUnits="userSpaceOnUse"
       id="clipPath16"><path
         d="M 0,128 128,128 128,0 0,0 0,128 z"
         id="path18" /></clipPath><clipPath
       clipPathUnits="userSpaceOnUse"
       id="clipPath24"><path
         d="m 35.8922,91.0903 54.7544,0 0,-63.2783 -54.7544,0 0,63.2783 z"
         id="path26" /></clipPath><linearGradient
       x1="0"
       y1="0"
       x2="1"
       y2="0"
       gradientUnits="userSpaceOnUse"
       gradientTransform="matrix(0,63.27832,63.27832,0,63.269386,27.812012)"
       spreadMethod="pad"
       id="linearGradient32"><stop
         style="stop-opacity:1;stop-color:#666666"
         offset="0"
         id="stop34" /><stop
         style="stop-opacity:1;stop-color:#d5dfe6"
         offset="1"
         id="stop36" /></linearGradient><linearGradient
       x1="0"
       y1="0"
       x2="1"
       y2="0"
       gradientUnits="userSpaceOnUse"
       gradientTransform="matrix(0,93.5308,93.5308,0,63.999977,17.631084)"
       spreadMethod="pad"
       id="linearGradient64"><stop
         style="stop-opacity:1;stop-color:#666666"
         offset="0"
         id="stop66" /><stop
         style="stop-opacity:1;stop-color:#d5dfe6"
         offset="1"
         id="stop68" /></linearGradient></defs><sodipodi:namedview
     pagecolor="#ffffff"
     bordercolor="#666666"
     borderopacity="1"
     objecttolerance="10"
     gridtolerance="10"
     guidetolerance="10"
     inkscape:pageopacity="0"
     inkscape:pageshadow="2"
     inkscape:window-width="640"
     inkscape:window-height="480"
     id="namedview4"
     showgrid="false"
     inkscape:zoom="1.475"
     inkscape:cx="80"
     inkscape:cy="80"
     inkscape:window-x="0"
     inkscape:window-y="0"
     inkscape:window-maximized="0"
     inkscape:current-layer="g10" /><g
     id="g10"
     inkscape:groupmode="layer"
     inkscape:label="charactersheet"
     transform="matrix(1.25,0,0,-1.25,0,160)"><g
       id="g12"><g
         id="g14"
         clip-path="url(#clipPath16)"><g
           id="g20"><g
             id="g22" /><g
             id="g38"><g
               clip-path="url(#clipPath24)"
               opacity="0.5"
               id="g40"><g
                 id="g42"><g
                   id="g44"><g
                     id="g46"><g
                       id="g48"><path
                         d="m 70.667,29.002 c -0.676,0.202 -1.823,0.377 -2.797,1.485 -0.971,1.107 -1.016,0.749 -0.729,3.84 0.285,3.091 0.777,4.012 0.716,7.982 -0.061,3.971 -0.02,2.805 0.102,3.52 0.123,0.716 0.266,2.027 0.287,2.702 0.01,0.339 0.252,0.824 0.524,1.398 -0.92,2.015 -1.817,4.107 -2.295,4.671 -0.859,1.013 -1.902,2.578 -2.149,3.683 -0.245,1.106 -0.706,1.167 -1.043,1.167 -0.337,0 -0.8,-0.061 -1.045,-1.167 -0.246,-1.105 -1.289,-2.67 -2.148,-3.683 -0.41,-0.483 -1.385,-2.32 -2.353,-4.169 0.44,-2.935 0.449,-4.01 0.113,-5.292 -0.662,-2.531 -1.129,-4.518 0.079,-9.232 1.207,-4.714 0.301,-4.682 0.301,-5.275 0,-0.593 0.324,-0.971 0.162,-1.511 -0.162,-0.539 -0.107,-1.309 1.843,-1.309 1.945,0 1.956,0.01 1.247,1.398 -0.708,1.389 -0.708,0.92 -0.708,1.609 0,0.69 -0.424,1.937 -0.254,4.163 0.169,2.226 0.747,4.257 0.747,5.506 0,1.248 -0.347,3.192 0.165,4.278 0.51,1.085 0.709,1.525 0.963,4.197 0.253,2.673 1.145,7.904 1.145,7.904 0,0 0.387,-5.231 0.387,-7.904 0,-1.629 0.273,-2.462 0.355,-3.628 0.055,-0.752 -0.297,-1.7 -0.519,-2.911 -0.683,-3.723 0.446,-4.372 0.446,-5.619 0,-1.249 0.314,-1.746 0.484,-3.972 0,0 -0.061,-1.63 -0.357,-2.548 -0.297,-0.919 -0.607,-2.323 0.351,-2.323 0.958,0 2.117,0.216 3.196,0.094 0.312,-0.035 0.715,-0.072 1.135,-0.102 0.8,0.125 1.589,0.283 2.371,0.459 -0.074,0.227 -0.301,0.462 -0.722,0.589 m 13.314,59.234 c -1.17,-0.738 -5.4,-1.129 -6.783,-2.022 -1.386,-0.892 -1.316,-0.83 -2.761,-1.442 -1.449,-0.612 -2.127,-0.282 -3.819,-0.035 -1.196,0.174 -2.242,-0.34 -2.76,-0.658 1.583,-0.013 3.55,-0.571 4.757,-1.358 1.383,-0.902 2.316,-0.689 3.737,-0.997 2.128,1.322 3.727,1.399 5.562,2.479 1.945,1.146 2.831,2.055 3.214,2.241 0.383,0.188 0.682,0.28 1.206,0.347 0.525,0.065 1.15,0.14 1.861,0.467 0.712,0.327 2.169,0.822 2.169,1.093 0,0.231 0.065,0.49 0.283,0.758 -0.617,0.683 -1.263,1.337 -1.929,1.971 -0.993,-0.267 -2.088,-0.845 -2.599,-1.135 -0.786,-0.447 -0.97,-0.97 -2.138,-1.709 m -47.78,0.115 c 0,0.24 -0.069,0.51 -0.309,0.789 0.611,0.675 1.253,1.322 1.912,1.95 1.004,-0.261 2.123,-0.85 2.642,-1.145 0.784,-0.447 0.969,-0.97 2.139,-1.709 1.17,-0.738 4.619,-1.129 6.004,-2.022 1.386,-0.892 2.094,-0.83 3.54,-1.442 1.446,-0.612 2.126,-0.282 3.818,-0.035 1.196,0.174 2.242,-0.34 2.76,-0.658 -1.582,-0.013 -3.55,-0.571 -4.757,-1.358 -1.191,-0.776 -2.597,-0.726 -3.892,-0.893 -2.166,1.345 -4.392,2.098 -6.187,3.155 -1.945,1.146 -2.051,1.275 -2.433,1.461 -0.384,0.188 -0.683,0.28 -1.206,0.347 -0.525,0.065 -1.151,0.14 -1.862,0.467 -0.712,0.327 -2.169,0.822 -2.169,1.093"
                         style="fill:url(#linearGradient32);stroke:none"
                         id="path50" /></g></g></g></g></g></g></g></g></g><g
       id="g52"><g
         id="g54"><g
           id="g60"><g
             id="g62"><path
               d="m 23.5,87.779 0,-46.765 40.499,-23.383 40.501,23.383 0,46.765 L 63.999,111.162 23.5,87.779 z m 12.392,1.361 c 0.611,0.676 1.253,1.322 1.912,1.95 l 0,0 c 6.621,6.315 15.579,10.2 25.452,10.2 l 0,0 c 9.877,0 18.84,-3.889 25.462,-10.21 l 0,0 c 0.665,-0.635 1.313,-1.288 1.928,-1.971 l 0,0 c 1.998,-2.212 3.73,-4.669 5.149,-7.318 l 0,0 c -0.409,0.082 -0.891,0.132 -1.457,0.132 l 0,0 c 0,0 -0.928,0.368 -2.321,0.368 l 0,0 c -1.63,0 -1.505,-1.013 -2.825,-1.013 l 0,0 c -1.32,0 -7.749,0.798 -11.093,0.307 l 0,0 c 0,0 -0.185,-0.214 -1.659,0.122 l 0,0 c -0.031,0.008 -0.058,0.011 -0.088,0.018 l 0,0 c -1.422,0.307 -2.354,0.094 -3.737,0.996 l 0,0 c -1.207,0.787 -3.175,1.345 -4.757,1.358 l 0,0 c -0.269,0.002 -0.528,-0.007 -0.769,-0.038 l 0,0 c -1.657,-0.214 -1.842,0.828 -1.72,2.088 l 0,0 c 0.124,1.258 0.354,1.195 0.354,1.195 l 0,0 c 0,0 0.562,-0.207 0.729,1.062 l 0,0 c 0.167,1.271 -0.409,1.16 -0.409,1.16 l 0,0 c 0,0 0.218,3.644 -2.76,3.644 l 0,0 c -2.978,0 -2.762,-3.644 -2.762,-3.644 l 0,0 c 0,0 -0.576,0.111 -0.407,-1.16 l 0,0 c 0.165,-1.269 0.727,-1.062 0.727,-1.062 l 0,0 c 0,0 0.231,0.063 0.354,-1.195 l 0,0 c 0.123,-1.26 -0.06,-2.302 -1.718,-2.088 l 0,0 c -0.241,0.031 -0.502,0.04 -0.77,0.038 l 0,0 c -1.582,-0.013 -3.55,-0.571 -4.756,-1.358 l 0,0 C 52.76,81.945 51.352,81.995 50.058,81.828 l 0,0 C 49.816,81.797 49.577,81.76 49.345,81.707 l 0,0 c -1.474,-0.336 -1.658,-0.122 -1.658,-0.122 l 0,0 c -3.347,0.491 -8.79,-0.307 -10.111,-0.307 l 0,0 c -1.319,0 -1.197,1.013 -2.824,1.013 l 0,0 c -1.394,0 -2.324,-0.368 -2.324,-0.368 l 0,0 c -0.897,0 -1.449,-0.126 -1.802,-0.31 l 0,0 c 1.443,2.729 3.213,5.258 5.266,7.527 M 26.363,64.397 c 0,5.784 1.334,11.255 3.706,16.128 l 0,0 c 0.149,-0.454 1.056,-1.074 1.698,-1.429 l 0,0 c 0.678,-0.374 0.995,-0.273 2.095,-0.273 l 0,0 c 1.787,0 3.313,0.153 4.267,0.153 l 0,0 c 0.953,0 4.185,-0.788 9.682,-0.553 l 0,0 c 1.006,0.043 1.869,-0.015 2.624,-0.073 l 0,0 c 0.69,-0.052 1.291,-0.105 1.828,-0.081 l 0,0 c 2.214,0.099 3.1,0.491 3.1,0.491 l 0,0 c 0.643,-0.123 2.364,-4.696 2.781,-7.029 l 0,0 c 0.416,-2.334 -0.143,-2.795 -0.019,-4.36 l 0,0 c 0.122,-1.566 -0.398,-2.876 -0.398,-2.876 l 0,0 c -0.819,-4.339 -2.994,-5.483 -3.894,-9.743 l 0,0 C 51.778,45.015 50.438,47.104 49.108,42.203 l 0,0 c -1.99,-7.333 -2.272,-8.22 -2.731,-9.116 l 0,0 c -0.269,-0.523 -0.591,-0.799 -0.95,-0.991 l 0,0 C 34.061,38.383 26.363,50.488 26.363,64.397 m 69.416,14.699 c 0.315,0.174 0.693,0.414 1.018,0.665 l 0,0 c 2.146,-4.679 3.352,-9.88 3.352,-15.364 l 0,0 c 0,-13.073 -6.805,-24.549 -17.059,-31.102 l 0,0 c -0.138,0.016 -0.276,0.032 -0.413,0.072 l 0,0 c -0.719,0.21 -2.844,0.404 -3.302,1.301 l 0,0 c -0.461,0.896 -0.812,1.756 -2.277,6.146 l 0,0 c -0.83,2.493 -2.391,5.58 -3.155,7.987 l 0,0 c -0.418,1.316 -0.174,2.204 -0.902,5.645 l 0,0 c -0.897,4.261 -3.385,5.71 -4.202,10.049 l 0,0 c 0,0 -0.521,1.31 -0.398,2.876 l 0,0 c 0.121,1.565 -0.437,2.026 -0.018,4.36 l 0,0 c 0.416,2.333 2.134,6.906 2.78,7.029 l 0,0 c 0,0 0.885,-0.392 3.1,-0.491 l 0,0 c 0.537,-0.024 1.137,0.028 1.827,0.081 l 0,0 c 0.756,0.058 1.619,0.116 2.626,0.073 l 0,0 c 5.496,-0.235 9.71,0.553 10.663,0.553 l 0,0 c 0.951,0 2.479,-0.153 4.267,-0.153 l 0,0 c 0.385,0 0.674,-0.012 0.916,-0.012 l 0,0 c 0.449,0 0.736,0.042 1.177,0.285 M 47.963,30.824 c 0.042,0.086 0.091,0.166 0.123,0.259 l 0,0 c 0.247,0.707 0.215,1.044 0.492,1.32 l 0,0 c 0.276,0.277 0.276,1.29 0.675,1.996 l 0,0 c 0.399,0.706 2.118,4.053 2.825,4.943 l 0,0 c 0.705,0.89 1.228,1.934 1.749,3.838 l 0,0 c 0.521,1.903 0.952,2.333 1.504,2.885 l 0,0 c 0.289,0.29 1.344,2.335 2.406,4.366 l 0,0 c 0.968,1.849 1.943,3.686 2.353,4.168 l 0,0 c 0.859,1.014 1.902,2.58 2.148,3.684 l 0,0 c 0.244,1.105 0.708,1.167 1.045,1.167 l 0,0 c 0.337,0 0.798,-0.062 1.043,-1.167 l 0,0 c 0.246,-1.104 1.29,-2.67 2.149,-3.684 l 0,0 c 0.478,-0.563 1.375,-2.655 2.296,-4.671 l 0,0 c 0.732,-1.606 1.481,-3.164 2.044,-3.863 l 0,0 c 0.49,-0.609 0.54,-1.167 0.956,-3.095 l 0,0 c 0.857,-3.976 1.848,-3.106 2.999,-5.09 l 0,0 c 0.409,-0.702 2.478,-4.323 2.541,-4.708 l 0,0 c 0.174,-1.075 0.005,-2.02 0.426,-2.715 l 0,0 C 75.709,29.59 73.584,28.908 71.389,28.414 l 0,0 c -0.782,-0.176 -1.571,-0.335 -2.371,-0.46 l 0,0 C 67.14,27.659 65.217,27.503 63.256,27.503 l 0,0 c -5.457,0 -10.632,1.194 -15.293,3.321"
               style="fill:url(#linearGradient64);stroke:none"
               id="path70" /></g></g></g></g></g></svg>