<?xml version="1.0" encoding="UTF-8" standalone="no"?>
<!-- Created with Inkscape (http://www.inkscape.org/) -->

<svg
   xmlns:dc="http://purl.org/dc/elements/1.1/"
   xmlns:cc="http://creativecommons.org/ns#"
   xmlns:rdf="http://www.w3.org/1999/02/22-rdf-syntax-ns#"
   xmlns:svg="http://www.w3.org/2000/svg"
   xmlns="http://www.w3.org/2000/svg"
   xmlns:sodipodi="http://sodipodi.sourceforge.net/DTD/sodipodi-0.dtd"
   xmlns:inkscape="http://www.inkscape.org/namespaces/inkscape"
   id="svg2"
   version="1.1"
   inkscape:version="0.48.4 r9939"
   width="160"
   height="160"
   xml:space="preserve"
   sodipodi:docname="contacts.pdf"><metadata
     id="metadata8"><rdf:RDF><cc:Work
         rdf:about=""><dc:format>image/svg+xml</dc:format><dc:type
           rdf:resource="http://purl.org/dc/dcmitype/StillImage" /><dc:title></dc:title></cc:Work></rdf:RDF></metadata><defs
     id="defs6"><clipPath
       clipPathUnits="userSpaceOnUse"
       id="clipPath16"><path
         d="M 0,128 128,128 128,0 0,0 0,128 z"
         id="path18" /></clipPath><clipPath
       clipPathUnits="userSpaceOnUse"
       id="clipPath24"><path
         d="m 18.7747,108.226 48.8135,0 0,-72.5286 -48.8135,0 0,72.5286 z"
         id="path26" /></clipPath><linearGradient
       x1="0"
       y1="0"
       x2="1"
       y2="0"
       gradientUnits="userSpaceOnUse"
       gradientTransform="matrix(0,72.528259,72.528259,0,43.181423,35.69735)"
       spreadMethod="pad"
       id="linearGradient32"><stop
         style="stop-opacity:1;stop-color:#666666"
         offset="0"
         id="stop34" /><stop
         style="stop-opacity:1;stop-color:#d5dfe6"
         offset="1"
         id="stop36" /></linearGradient><linearGradient
       x1="0"
       y1="0"
       x2="1"
       y2="0"
       gradientUnits="userSpaceOnUse"
       gradientTransform="matrix(0,72.528259,72.528259,0,72.876854,25.100426)"
       spreadMethod="pad"
       id="linearGradient64"><stop
         style="stop-opacity:1;stop-color:#666666"
         offset="0"
         id="stop66" /><stop
         style="stop-opacity:1;stop-color:#d5dfe6"
         offset="1"
         id="stop68" /></linearGradient></defs><sodipodi:namedview
     pagecolor="#ffffff"
     bordercolor="#666666"
     borderopacity="1"
     objecttolerance="10"
     gridtolerance="10"
     guidetolerance="10"
     inkscape:pageopacity="0"
     inkscape:pageshadow="2"
     inkscape:window-width="640"
     inkscape:window-height="480"
     id="namedview4"
     showgrid="false"
     inkscape:zoom="1.475"
     inkscape:cx="80"
     inkscape:cy="80"
     inkscape:window-x="0"
     inkscape:window-y="0"
     inkscape:window-maximized="0"
     inkscape:current-layer="g10" /><g
     id="g10"
     inkscape:groupmode="layer"
     inkscape:label="contacts"
     transform="matrix(1.25,0,0,-1.25,0,160)"><g
       id="g12"><g
         id="g14"
         clip-path="url(#clipPath16)"><g
           id="g20"><g
             id="g22" /><g
             id="g38"><g
               clip-path="url(#clipPath24)"
               opacity="0.5"
               id="g40"><g
                 id="g42"><g
                   id="g44"><g
                     id="g46"><g
                       id="g48"><path
                         d="m 31.746,38.962 3.118,1.267 c 0.15,0.061 15.1,6.141 21.028,8.967 0.646,0.308 1.094,2.454 1.037,4.523 -0.816,1.183 -1.723,2.934 -2.076,5.194 -0.147,0.938 -0.3,1.926 -0.435,2.798 -0.911,0.778 -1.644,1.815 -2.122,3.055 -0.766,1.999 -0.984,2.89 -1.413,4.927 -1.316,6.248 -0.183,8.655 0.952,10.053 0.098,0.121 0.201,0.238 0.307,0.35 0.041,4.107 0.884,11.085 5.531,16.315 1.904,2.143 5.045,4.594 9.915,5.666 -2.244,3.437 -6.095,6.149 -12.683,6.149 -18.019,0 -15.617,-20.265 -15.617,-20.265 0.014,-0.501 -0.159,-0.63 -0.359,-0.63 -0.207,0 -0.442,0.138 -0.529,0.145 -0.022,0.002 -0.044,0.002 -0.066,0.002 -1.593,0.001 -0.921,-4.299 -0.53,-6.157 0.396,-1.882 0.547,-2.493 1.19,-4.17 0.497,-1.289 1.4,-1.439 1.794,-1.439 0.119,0 0.191,0.013 0.191,0.013 0,0 0.445,-2.9 0.843,-5.443 0.396,-2.542 1.985,-4.017 1.985,-4.017 0,0 1.276,-8.596 -3.734,-10.985 -6.13,-2.923 -21.298,-9.086 -21.298,-9.086 l 0,-10.497 12.971,0 0,3.265 z"
                         style="fill:url(#linearGradient32);stroke:none"
                         id="path50" /></g></g></g></g></g></g></g></g></g><g
       id="g52"><g
         id="g54"><g
           id="g60"><g
             id="g62"><path
               d="m 57.259,77.364 c 0.014,-0.5 -0.159,-0.63 -0.358,-0.63 l 0,0 c -0.207,0 -0.442,0.138 -0.529,0.145 l 0,0 c -0.023,0.002 -0.045,0.003 -0.067,0.003 l 0,0 c -1.593,0 -0.921,-4.3 -0.529,-6.158 l 0,0 c 0.396,-1.882 0.547,-2.493 1.189,-4.17 l 0,0 c 0.497,-1.29 1.401,-1.439 1.794,-1.439 l 0,0 c 0.119,0 0.192,0.013 0.192,0.013 l 0,0 c 0,0 0.445,-2.9 0.842,-5.443 l 0,0 c 0.396,-2.542 1.985,-4.017 1.985,-4.017 l 0,0 c 0,0 1.277,-8.595 -3.733,-10.985 l 0,0 C 51.915,41.76 36.746,35.597 36.746,35.597 l 0,0 0,-10.497 36.131,0 36.131,0 0,10.497 c 0,0 -15.169,6.163 -21.298,9.086 l 0,0 c -5.011,2.39 -3.735,10.985 -3.735,10.985 l 0,0 c 0,0 1.589,1.475 1.986,4.017 l 0,0 c 0.398,2.543 0.842,5.443 0.842,5.443 l 0,0 c 0,0 0.072,-0.013 0.192,-0.013 l 0,0 c 0.393,0 1.297,0.149 1.794,1.439 l 0,0 c 0.641,1.677 0.792,2.288 1.189,4.17 l 0,0 c 0.392,1.858 1.063,6.157 -0.53,6.158 l 0,0 c -0.021,0 -0.044,-0.001 -0.066,-0.003 l 0,0 C 89.295,76.872 89.06,76.734 88.853,76.734 l 0,0 c -0.2,0 -0.373,0.13 -0.359,0.63 l 0,0 c 0,0 2.402,20.264 -15.617,20.264 l 0,0 c -18.019,0 -15.618,-20.264 -15.618,-20.264"
               style="fill:url(#linearGradient64);stroke:none"
               id="path70" /></g></g></g></g></g></svg>