<?xml version="1.0" encoding="UTF-8" standalone="no"?>
<!-- Created with Inkscape (http://www.inkscape.org/) -->

<svg
   xmlns:dc="http://purl.org/dc/elements/1.1/"
   xmlns:cc="http://creativecommons.org/ns#"
   xmlns:rdf="http://www.w3.org/1999/02/22-rdf-syntax-ns#"
   xmlns:svg="http://www.w3.org/2000/svg"
   xmlns="http://www.w3.org/2000/svg"
   xmlns:sodipodi="http://sodipodi.sourceforge.net/DTD/sodipodi-0.dtd"
   xmlns:inkscape="http://www.inkscape.org/namespaces/inkscape"
   id="svg2"
   version="1.1"
   inkscape:version="0.48.4 r9939"
   width="160"
   height="160"
   xml:space="preserve"
   sodipodi:docname="planets.pdf"><metadata
     id="metadata8"><rdf:RDF><cc:Work
         rdf:about=""><dc:format>image/svg+xml</dc:format><dc:type
           rdf:resource="http://purl.org/dc/dcmitype/StillImage" /><dc:title></dc:title></cc:Work></rdf:RDF></metadata><defs
     id="defs6"><linearGradient
       x1="0"
       y1="0"
       x2="1"
       y2="0"
       gradientUnits="userSpaceOnUse"
       gradientTransform="matrix(0,55.0322,55.0322,0,64.000053,36.484402)"
       spreadMethod="pad"
       id="linearGradient24"><stop
         style="stop-opacity:1;stop-color:#666666"
         offset="0"
         id="stop26" /><stop
         style="stop-opacity:1;stop-color:#d5dfe6"
         offset="1"
         id="stop28" /></linearGradient></defs><sodipodi:namedview
     pagecolor="#ffffff"
     bordercolor="#666666"
     borderopacity="1"
     objecttolerance="10"
     gridtolerance="10"
     guidetolerance="10"
     inkscape:pageopacity="0"
     inkscape:pageshadow="2"
     inkscape:window-width="640"
     inkscape:window-height="480"
     id="namedview4"
     showgrid="false"
     inkscape:zoom="1.475"
     inkscape:cx="80"
     inkscape:cy="80"
     inkscape:window-x="0"
     inkscape:window-y="0"
     inkscape:window-maximized="0"
     inkscape:current-layer="g10" /><g
     id="g10"
     inkscape:groupmode="layer"
     inkscape:label="planets"
     transform="matrix(1.25,0,0,-1.25,0,160)"><g
       id="g12"><g
         id="g14"><g
           id="g20"><g
             id="g22"><path
               d="m 36.942,64.001 c 0,-0.334 0.032,-0.657 0.042,-0.987 l 0,0 C 23.998,56.056 15.979,49.352 17.534,45.364 l 0,0 c 2.351,-6.022 25.622,-1.398 51.083,8.536 l 0,0 c 25.457,9.935 44.192,22.869 41.842,28.891 l 0,0 c -1.52,3.895 -11.502,3.029 -25.252,-0.76 l 0,0 c -5.041,5.802 -12.456,9.485 -20.748,9.485 l 0,0 c -15.198,0 -27.517,-12.32 -27.517,-27.515 M 87.13,79.529 c 8.224,1.621 13.837,1.512 14.701,-0.705 l 0,0 c 0.858,-2.21 -3.155,-6.064 -10.245,-10.419 l 0,0 c -0.662,4.081 -2.213,7.853 -4.456,11.124 M 25.849,49.178 c -0.906,2.32 3.585,6.463 11.37,11.095 l 0,0 c 0.583,-4.245 2.127,-8.18 4.416,-11.579 l 0,0 C 37.494,47.826 33.959,47.37 31.281,47.37 l 0,0 c -3.022,0 -4.954,0.581 -5.432,1.808 m 44.399,1.053 C 62.335,47.143 54.692,44.494 47.556,42.319 l 0,0 c 4.664,-3.644 10.52,-5.835 16.903,-5.835 l 0,0 c 13.739,0 25.093,10.079 27.151,23.244 l 0,0 C 84.873,56.34 77.599,53.098 70.248,50.231"
               style="fill:url(#linearGradient24);stroke:none"
               id="path30" /></g></g></g></g></g></svg>