<?xml version="1.0" encoding="UTF-8" standalone="no"?>
<!-- Created with Inkscape (http://www.inkscape.org/) -->

<svg
   xmlns:dc="http://purl.org/dc/elements/1.1/"
   xmlns:cc="http://creativecommons.org/ns#"
   xmlns:rdf="http://www.w3.org/1999/02/22-rdf-syntax-ns#"
   xmlns:svg="http://www.w3.org/2000/svg"
   xmlns="http://www.w3.org/2000/svg"
   xmlns:sodipodi="http://sodipodi.sourceforge.net/DTD/sodipodi-0.dtd"
   xmlns:inkscape="http://www.inkscape.org/namespaces/inkscape"
   id="svg2"
   version="1.1"
   inkscape:version="0.48.4 r9939"
   width="160"
   height="160"
   xml:space="preserve"
   sodipodi:docname="recruitment.pdf"><metadata
     id="metadata8"><rdf:RDF><cc:Work
         rdf:about=""><dc:format>image/svg+xml</dc:format><dc:type
           rdf:resource="http://purl.org/dc/dcmitype/StillImage" /><dc:title></dc:title></cc:Work></rdf:RDF></metadata><defs
     id="defs6"><clipPath
       clipPathUnits="userSpaceOnUse"
       id="clipPath16"><path
         d="M 0,128 128,128 128,0 0,0 0,128 z"
         id="path18" /></clipPath><clipPath
       clipPathUnits="userSpaceOnUse"
       id="clipPath24"><path
         d="m 19.0001,91.8541 40.195,0 0,-57.7135 -40.195,0 0,57.7135 z"
         id="path26" /></clipPath><linearGradient
       x1="0"
       y1="0"
       x2="1"
       y2="0"
       gradientUnits="userSpaceOnUse"
       gradientTransform="matrix(0,57.713501,57.713501,0,39.097576,34.140633)"
       spreadMethod="pad"
       id="linearGradient32"><stop
         style="stop-opacity:1;stop-color:#666666"
         offset="0"
         id="stop34" /><stop
         style="stop-opacity:1;stop-color:#d5dfe6"
         offset="1"
         id="stop36" /></linearGradient><linearGradient
       x1="0"
       y1="0"
       x2="1"
       y2="0"
       gradientUnits="userSpaceOnUse"
       gradientTransform="matrix(0,86.548462,86.548462,0,77.333443,25.944464)"
       spreadMethod="pad"
       id="linearGradient64"><stop
         style="stop-opacity:1;stop-color:#666666"
         offset="0"
         id="stop66" /><stop
         style="stop-opacity:1;stop-color:#d5dfe6"
         offset="1"
         id="stop68" /></linearGradient></defs><sodipodi:namedview
     pagecolor="#ffffff"
     bordercolor="#666666"
     borderopacity="1"
     objecttolerance="10"
     gridtolerance="10"
     guidetolerance="10"
     inkscape:pageopacity="0"
     inkscape:pageshadow="2"
     inkscape:window-width="640"
     inkscape:window-height="480"
     id="namedview4"
     showgrid="false"
     inkscape:zoom="1.475"
     inkscape:cx="80"
     inkscape:cy="80"
     inkscape:window-x="0"
     inkscape:window-y="0"
     inkscape:window-maximized="0"
     inkscape:current-layer="g10" /><g
     id="g10"
     inkscape:groupmode="layer"
     inkscape:label="recruitment"
     transform="matrix(1.25,0,0,-1.25,0,160)"><g
       id="g12"><g
         id="g14"
         clip-path="url(#clipPath16)"><g
           id="g20"><g
             id="g22" /><g
             id="g38"><g
               clip-path="url(#clipPath24)"
               opacity="0.75"
               id="g40"><g
                 id="g42"><g
                   id="g44"><g
                     id="g46"><g
                       id="g48"><path
                         d="m 37.499,34.297 0,3.365 3.118,1.267 c 0.118,0.048 11.741,4.775 16.529,7.041 0.239,0.416 0.39,1.437 0.393,2.442 -0.667,1.032 -1.359,2.474 -1.641,4.281 -0.097,0.62 -0.197,1.267 -0.29,1.866 -0.717,0.691 -1.296,1.563 -1.689,2.584 -0.636,1.659 -0.816,2.395 -1.17,4.075 -0.887,4.208 -0.59,6.939 0.963,8.854 0.009,0.01 0.018,0.021 0.027,0.032 0.087,3.467 0.887,9.029 4.649,13.263 0.244,0.275 0.515,0.556 0.807,0.837 -1.39,3.889 -4.52,7.65 -11.444,7.65 -14.339,0 -12.428,-16.125 -12.428,-16.125 0.012,-0.399 -0.126,-0.501 -0.285,-0.501 -0.165,0 -0.352,0.109 -0.421,0.115 -0.018,10e-4 -0.036,0.002 -0.053,0.002 -1.268,0 -0.733,-3.421 -0.421,-4.9 0.315,-1.497 0.435,-1.984 0.946,-3.318 0.396,-1.026 1.114,-1.146 1.428,-1.146 0.094,0 0.152,0.011 0.152,0.011 0,0 0.354,-2.308 0.671,-4.331 0.315,-2.023 1.579,-3.196 1.579,-3.196 0,0 1.016,-6.84 -2.971,-8.741 C 31.07,47.398 19,42.493 19,42.493 l 0,-8.352 18.499,0 0,0.156 z"
                         style="fill:url(#linearGradient32);stroke:none"
                         id="path50" /></g></g></g></g></g></g></g></g></g><g
       id="g52"><g
         id="g54"><g
           id="g60"><g
             id="g62"><path
               d="m 89.548,112.493 0,-14.982 -14.98,0 0,-7.638 14.98,0 0,-14.981 7.639,0 0,14.981 14.981,0 0,7.638 -14.981,0 0,14.982 -7.639,0 z M 58.822,67.532 c 0.011,-0.397 -0.127,-0.5 -0.285,-0.5 l 0,0 c -0.165,0 -0.352,0.109 -0.421,0.114 l 0,0 c -0.018,0.002 -0.035,0.003 -0.053,0.003 l 0,0 c -1.268,0 -0.733,-3.422 -0.422,-4.9 l 0,0 c 0.315,-1.497 0.436,-1.984 0.947,-3.318 l 0,0 c 0.395,-1.026 1.114,-1.146 1.428,-1.146 l 0,0 c 0.094,0 0.152,0.011 0.152,0.011 l 0,0 c 0,0 0.354,-2.307 0.67,-4.331 l 0,0 c 0.316,-2.023 1.58,-3.196 1.58,-3.196 l 0,0 c 0,0 1.016,-6.84 -2.971,-8.741 l 0,0 C 54.569,39.201 42.499,34.297 42.499,34.297 l 0,0 0,-8.353 28.75,0 28.751,0 0,8.353 c 0,0 -12.07,4.904 -16.948,7.231 l 0,0 c -3.987,1.901 -2.971,8.741 -2.971,8.741 l 0,0 c 0,0 1.265,1.173 1.58,3.196 l 0,0 c 0.316,2.024 0.67,4.331 0.67,4.331 l 0,0 c 0,0 0.058,-0.011 0.152,-0.011 l 0,0 c 0.313,0 1.033,0.119 1.428,1.146 l 0,0 c 0.511,1.334 0.631,1.821 0.946,3.318 l 0,0 c 0.312,1.478 0.846,4.899 -0.421,4.9 l 0,0 c -0.017,0 -0.035,-0.001 -0.053,-0.003 l 0,0 c -0.069,-0.005 -0.256,-0.114 -0.42,-0.114 l 0,0 c -0.16,0 -0.297,0.102 -0.285,0.5 l 0,0 c 0,0 1.91,16.126 -12.429,16.126 l 0,0 c -14.338,0 -12.427,-16.126 -12.427,-16.126"
               style="fill:url(#linearGradient64);stroke:none"
               id="path70" /></g></g></g></g></g></svg>