<?xml version="1.0" encoding="UTF-8"?>
<svg width="136px" height="154px" viewBox="0 0 156 174" version="1.1" xmlns="http://www.w3.org/2000/svg" xmlns:xlink="http://www.w3.org/1999/xlink">
    <!-- Generator: Sketch 51.2 (57519) - http://www.bohemiancoding.com/sketch -->
    <title>hive-hexagon</title>
    <defs>
        <linearGradient x1="50%" y1="100%" x2="50%" y2="3.061617e-15%" id="linearGradient-1">
            <stop stop-color="#FF4E50" offset="0%"></stop>
            <stop stop-color="#FD9C27" offset="100%"></stop>
        </linearGradient>
    </defs>
    <g id="Inner-pages" stroke="none" stroke-width="1" fill="none" fill-rule="evenodd">
        <g id="How-it-Works" transform="translate(-923.000000, -803.000000)" fill="url(#linearGradient-1)">
            <g id="Group" transform="translate(923.000000, 803.000000)">
                <g id="Group-5">
                    <path d="M88.2755767,2.7710749 L145.428953,35.7685923 C151.81462,39.4553588 155.748353,46.2687843 155.748353,53.6423174 L155.748353,119.637352 C155.748353,127.010885 151.81462,133.824311 145.428953,137.511077 L88.2755767,170.508595 C81.8899097,174.195361 74.0224436,174.195361 67.6367767,170.508595 L10.4834,137.511077 C4.09773306,133.824311 0.164,127.010885 0.164,119.637352 L0.164,53.6423174 C0.164,46.2687843 4.09773306,39.4553588 10.4834,35.7685923 L67.6367767,2.7710749 C74.0224436,-0.915691632 81.8899097,-0.915691632 88.2755767,2.7710749 Z" id="business--object-orange-copy-8"></path>
                </g>
            </g>
        </g>
    </g>
</svg>
